<mxfile host="app.diagrams.net" agent="Mozilla/5.0 (Macintosh; Intel Mac OS X 10_15_7) AppleWebKit/605.1.15 (KHTML, like Gecko) Version/18.3.1 Safari/605.1.15" version="26.1.1">
  <diagram id="ORyovXKRxXFvrW5-OJGk" name="4b">
    <mxGraphModel dx="1054" dy="884" grid="1" gridSize="10" guides="1" tooltips="1" connect="1" arrows="1" fold="1" page="1" pageScale="1" pageWidth="1169" pageHeight="827" math="0" shadow="0">
      <root>
        <mxCell id="0" />
        <mxCell id="1" parent="0" />
        <mxCell id="00A9HU5iQKGYs6TagwXu-2" value="" style="endArrow=classic;html=1;rounded=0;exitX=0;exitY=0.5;exitDx=0;exitDy=0;entryX=1.033;entryY=0.51;entryDx=0;entryDy=0;entryPerimeter=0;" parent="1" source="5CCXZrM_Q9LhJRwF_CGn-77" target="5CCXZrM_Q9LhJRwF_CGn-68" edge="1">
          <mxGeometry width="50" height="50" relative="1" as="geometry">
            <mxPoint x="540" y="400" as="sourcePoint" />
            <mxPoint x="570" y="280" as="targetPoint" />
          </mxGeometry>
        </mxCell>
        <mxCell id="00A9HU5iQKGYs6TagwXu-1" value="" style="endArrow=classic;startArrow=classic;html=1;rounded=0;entryX=0.032;entryY=0.508;entryDx=0;entryDy=0;entryPerimeter=0;exitX=0.973;exitY=0.515;exitDx=0;exitDy=0;exitPerimeter=0;" parent="1" source="5CCXZrM_Q9LhJRwF_CGn-68" target="5CCXZrM_Q9LhJRwF_CGn-77" edge="1">
          <mxGeometry width="50" height="50" relative="1" as="geometry">
            <mxPoint x="560" y="430" as="sourcePoint" />
            <mxPoint x="670" y="276" as="targetPoint" />
          </mxGeometry>
        </mxCell>
        <mxCell id="5CCXZrM_Q9LhJRwF_CGn-50" value="Tanszék" style="swimlane;fontStyle=0;childLayout=stackLayout;horizontal=1;startSize=26;horizontalStack=0;resizeParent=1;resizeParentMax=0;resizeLast=0;collapsible=1;marginBottom=0;align=center;fontSize=14;fillColor=#ffcd28;strokeColor=#d79b00;gradientColor=#ffa500;" parent="1" vertex="1">
          <mxGeometry x="270" y="240" width="80" height="152" as="geometry" />
        </mxCell>
        <mxCell id="5CCXZrM_Q9LhJRwF_CGn-51" value="&lt;u&gt;Kód&lt;/u&gt;" style="text;strokeColor=none;fillColor=#f8cecc;spacingLeft=4;spacingRight=4;overflow=hidden;rotatable=0;points=[[0,0.5],[1,0.5]];portConstraint=eastwest;fontSize=12;whiteSpace=wrap;html=1;strokeWidth=1;fontStyle=1;gradientColor=#ea6b66;gradientDirection=north;" parent="5CCXZrM_Q9LhJRwF_CGn-50" vertex="1">
          <mxGeometry y="26" width="80" height="20" as="geometry" />
        </mxCell>
        <mxCell id="5CCXZrM_Q9LhJRwF_CGn-57" value="C20" style="text;strokeColor=none;fillColor=#f5f5f5;spacingLeft=4;spacingRight=4;overflow=hidden;rotatable=0;points=[[0,0.5],[1,0.5]];portConstraint=eastwest;fontSize=12;whiteSpace=wrap;html=1;perimeterSpacing=0;gradientColor=#b3b3b3;" parent="5CCXZrM_Q9LhJRwF_CGn-50" vertex="1">
          <mxGeometry y="46" width="80" height="24" as="geometry" />
        </mxCell>
        <mxCell id="5CCXZrM_Q9LhJRwF_CGn-59" value="" style="endArrow=none;html=1;rounded=0;entryX=0.999;entryY=-0.014;entryDx=0;entryDy=0;entryPerimeter=0;exitX=-0.001;exitY=-0.029;exitDx=0;exitDy=0;exitPerimeter=0;" parent="5CCXZrM_Q9LhJRwF_CGn-50" source="5CCXZrM_Q9LhJRwF_CGn-52" target="5CCXZrM_Q9LhJRwF_CGn-52" edge="1">
          <mxGeometry relative="1" as="geometry">
            <mxPoint x="-1" y="70" as="sourcePoint" />
            <mxPoint x="80" y="70" as="targetPoint" />
          </mxGeometry>
        </mxCell>
        <mxCell id="5CCXZrM_Q9LhJRwF_CGn-52" value="Név" style="text;strokeColor=none;fillColor=#f8cecc;spacingLeft=4;spacingRight=4;overflow=hidden;rotatable=0;points=[[0,0.5],[1,0.5]];portConstraint=eastwest;fontSize=12;whiteSpace=wrap;html=1;gradientColor=#ea6b66;gradientDirection=north;" parent="5CCXZrM_Q9LhJRwF_CGn-50" vertex="1">
          <mxGeometry y="70" width="80" height="20" as="geometry" />
        </mxCell>
        <mxCell id="5CCXZrM_Q9LhJRwF_CGn-53" value="C25" style="text;strokeColor=none;fillColor=#f5f5f5;spacingLeft=4;spacingRight=4;overflow=hidden;rotatable=0;points=[[0,0.5],[1,0.5]];portConstraint=eastwest;fontSize=12;whiteSpace=wrap;html=1;gradientColor=#b3b3b3;" parent="5CCXZrM_Q9LhJRwF_CGn-50" vertex="1">
          <mxGeometry y="90" width="80" height="20" as="geometry" />
        </mxCell>
        <mxCell id="5CCXZrM_Q9LhJRwF_CGn-65" value="" style="endArrow=none;html=1;rounded=0;exitX=0.003;exitY=-0.014;exitDx=0;exitDy=0;exitPerimeter=0;entryX=1;entryY=-0.014;entryDx=0;entryDy=0;entryPerimeter=0;" parent="5CCXZrM_Q9LhJRwF_CGn-50" source="5CCXZrM_Q9LhJRwF_CGn-58" target="5CCXZrM_Q9LhJRwF_CGn-58" edge="1">
          <mxGeometry relative="1" as="geometry">
            <mxPoint x="0.8" y="110.5" as="sourcePoint" />
            <mxPoint x="80.00000000000004" y="110" as="targetPoint" />
          </mxGeometry>
        </mxCell>
        <mxCell id="5CCXZrM_Q9LhJRwF_CGn-58" value="Kar" style="text;strokeColor=none;fillColor=#f8cecc;spacingLeft=4;spacingRight=4;overflow=hidden;rotatable=0;points=[[0,0.5],[1,0.5]];portConstraint=eastwest;fontSize=12;whiteSpace=wrap;html=1;gradientColor=#ea6b66;gradientDirection=north;" parent="5CCXZrM_Q9LhJRwF_CGn-50" vertex="1">
          <mxGeometry y="110" width="80" height="20" as="geometry" />
        </mxCell>
        <mxCell id="5CCXZrM_Q9LhJRwF_CGn-64" value="C32" style="text;strokeColor=none;fillColor=#f5f5f5;spacingLeft=4;spacingRight=4;overflow=hidden;rotatable=0;points=[[0,0.5],[1,0.5]];portConstraint=eastwest;fontSize=12;whiteSpace=wrap;html=1;gradientColor=#b3b3b3;" parent="5CCXZrM_Q9LhJRwF_CGn-50" vertex="1">
          <mxGeometry y="130" width="80" height="22" as="geometry" />
        </mxCell>
        <mxCell id="5CCXZrM_Q9LhJRwF_CGn-67" value="Oktató" style="swimlane;fontStyle=0;childLayout=stackLayout;horizontal=1;startSize=26;horizontalStack=0;resizeParent=1;resizeParentMax=0;resizeLast=0;collapsible=1;marginBottom=0;align=center;fontSize=14;fillColor=#d5e8d4;strokeColor=#82b366;gradientColor=#97d077;" parent="1" vertex="1">
          <mxGeometry x="480" y="240" width="80" height="152" as="geometry" />
        </mxCell>
        <mxCell id="5CCXZrM_Q9LhJRwF_CGn-68" value="&lt;u&gt;Neptunkód&lt;/u&gt;" style="text;strokeColor=none;fillColor=#f8cecc;spacingLeft=4;spacingRight=4;overflow=hidden;rotatable=0;points=[[0,0.5],[1,0.5]];portConstraint=eastwest;fontSize=12;whiteSpace=wrap;html=1;strokeWidth=1;fontStyle=1;gradientColor=#ea6b66;gradientDirection=north;" parent="5CCXZrM_Q9LhJRwF_CGn-67" vertex="1">
          <mxGeometry y="26" width="80" height="20" as="geometry" />
        </mxCell>
        <mxCell id="5CCXZrM_Q9LhJRwF_CGn-69" value="C6" style="text;strokeColor=none;fillColor=#f5f5f5;spacingLeft=4;spacingRight=4;overflow=hidden;rotatable=0;points=[[0,0.5],[1,0.5]];portConstraint=eastwest;fontSize=12;whiteSpace=wrap;html=1;perimeterSpacing=0;gradientColor=#b3b3b3;" parent="5CCXZrM_Q9LhJRwF_CGn-67" vertex="1">
          <mxGeometry y="46" width="80" height="24" as="geometry" />
        </mxCell>
        <mxCell id="5CCXZrM_Q9LhJRwF_CGn-70" value="" style="endArrow=none;html=1;rounded=0;entryX=0.995;entryY=0.984;entryDx=0;entryDy=0;entryPerimeter=0;exitX=0.001;exitY=-0.029;exitDx=0;exitDy=0;exitPerimeter=0;" parent="5CCXZrM_Q9LhJRwF_CGn-67" source="5CCXZrM_Q9LhJRwF_CGn-71" target="5CCXZrM_Q9LhJRwF_CGn-69" edge="1">
          <mxGeometry relative="1" as="geometry">
            <mxPoint y="70" as="sourcePoint" />
            <mxPoint x="80" y="69" as="targetPoint" />
          </mxGeometry>
        </mxCell>
        <mxCell id="5CCXZrM_Q9LhJRwF_CGn-71" value="Név" style="text;strokeColor=none;fillColor=#f8cecc;spacingLeft=4;spacingRight=4;overflow=hidden;rotatable=0;points=[[0,0.5],[1,0.5]];portConstraint=eastwest;fontSize=12;whiteSpace=wrap;html=1;gradientColor=#ea6b66;gradientDirection=north;" parent="5CCXZrM_Q9LhJRwF_CGn-67" vertex="1">
          <mxGeometry y="70" width="80" height="20" as="geometry" />
        </mxCell>
        <mxCell id="5CCXZrM_Q9LhJRwF_CGn-72" value="C20" style="text;strokeColor=none;fillColor=#f5f5f5;spacingLeft=4;spacingRight=4;overflow=hidden;rotatable=0;points=[[0,0.5],[1,0.5]];portConstraint=eastwest;fontSize=12;whiteSpace=wrap;html=1;gradientColor=#b3b3b3;" parent="5CCXZrM_Q9LhJRwF_CGn-67" vertex="1">
          <mxGeometry y="90" width="80" height="20" as="geometry" />
        </mxCell>
        <mxCell id="5CCXZrM_Q9LhJRwF_CGn-73" value="Beosztás" style="text;strokeColor=none;fillColor=#f8cecc;spacingLeft=4;spacingRight=4;overflow=hidden;rotatable=0;points=[[0,0.5],[1,0.5]];portConstraint=eastwest;fontSize=12;whiteSpace=wrap;html=1;gradientColor=#ea6b66;gradientDirection=north;" parent="5CCXZrM_Q9LhJRwF_CGn-67" vertex="1">
          <mxGeometry y="110" width="80" height="20" as="geometry" />
        </mxCell>
        <mxCell id="5CCXZrM_Q9LhJRwF_CGn-74" value="C15&lt;div&gt;&lt;br&gt;&lt;/div&gt;" style="text;strokeColor=none;fillColor=#f5f5f5;spacingLeft=4;spacingRight=4;overflow=hidden;rotatable=0;points=[[0,0.5],[1,0.5]];portConstraint=eastwest;fontSize=12;whiteSpace=wrap;html=1;gradientColor=#b3b3b3;" parent="5CCXZrM_Q9LhJRwF_CGn-67" vertex="1">
          <mxGeometry y="130" width="80" height="22" as="geometry" />
        </mxCell>
        <mxCell id="5CCXZrM_Q9LhJRwF_CGn-75" value="" style="endArrow=none;html=1;rounded=0;entryX=0.997;entryY=-0.014;entryDx=0;entryDy=0;entryPerimeter=0;" parent="5CCXZrM_Q9LhJRwF_CGn-67" target="5CCXZrM_Q9LhJRwF_CGn-73" edge="1">
          <mxGeometry relative="1" as="geometry">
            <mxPoint y="110" as="sourcePoint" />
            <mxPoint x="80" y="112" as="targetPoint" />
          </mxGeometry>
        </mxCell>
        <mxCell id="5CCXZrM_Q9LhJRwF_CGn-76" value="Tantárgy" style="swimlane;fontStyle=0;childLayout=stackLayout;horizontal=1;startSize=26;horizontalStack=0;resizeParent=1;resizeParentMax=0;resizeLast=0;collapsible=1;marginBottom=0;align=center;fontSize=14;fillColor=#dae8fc;strokeColor=#6c8ebf;gradientColor=#7ea6e0;" parent="1" vertex="1">
          <mxGeometry x="660" y="240" width="90" height="218" as="geometry" />
        </mxCell>
        <mxCell id="5CCXZrM_Q9LhJRwF_CGn-77" value="&lt;u&gt;Kód&lt;/u&gt;" style="text;strokeColor=none;fillColor=#f8cecc;spacingLeft=4;spacingRight=4;overflow=hidden;rotatable=0;points=[[0,0.5],[1,0.5]];portConstraint=eastwest;fontSize=12;whiteSpace=wrap;html=1;strokeWidth=1;fontStyle=1;gradientColor=#ea6b66;gradientDirection=north;" parent="5CCXZrM_Q9LhJRwF_CGn-76" vertex="1">
          <mxGeometry y="26" width="90" height="20" as="geometry" />
        </mxCell>
        <mxCell id="5CCXZrM_Q9LhJRwF_CGn-78" value="C25" style="text;strokeColor=none;fillColor=#f5f5f5;spacingLeft=4;spacingRight=4;overflow=hidden;rotatable=0;points=[[0,0.5],[1,0.5]];portConstraint=eastwest;fontSize=12;whiteSpace=wrap;html=1;perimeterSpacing=0;gradientColor=#b3b3b3;" parent="5CCXZrM_Q9LhJRwF_CGn-76" vertex="1">
          <mxGeometry y="46" width="90" height="24" as="geometry" />
        </mxCell>
        <mxCell id="5CCXZrM_Q9LhJRwF_CGn-79" value="" style="endArrow=none;html=1;rounded=0;exitX=0.004;exitY=-0.02;exitDx=0;exitDy=0;exitPerimeter=0;" parent="5CCXZrM_Q9LhJRwF_CGn-76" source="5CCXZrM_Q9LhJRwF_CGn-80" edge="1">
          <mxGeometry relative="1" as="geometry">
            <mxPoint x="-1" y="70" as="sourcePoint" />
            <mxPoint x="90" y="69" as="targetPoint" />
          </mxGeometry>
        </mxCell>
        <mxCell id="5CCXZrM_Q9LhJRwF_CGn-80" value="Név" style="text;strokeColor=none;fillColor=#f8cecc;spacingLeft=4;spacingRight=4;overflow=hidden;rotatable=0;points=[[0,0.5],[1,0.5]];portConstraint=eastwest;fontSize=12;whiteSpace=wrap;html=1;gradientColor=#ea6b66;gradientDirection=north;" parent="5CCXZrM_Q9LhJRwF_CGn-76" vertex="1">
          <mxGeometry y="70" width="90" height="20" as="geometry" />
        </mxCell>
        <mxCell id="5CCXZrM_Q9LhJRwF_CGn-81" value="C20&lt;div&gt;&lt;br&gt;&lt;/div&gt;" style="text;strokeColor=none;fillColor=#f5f5f5;spacingLeft=4;spacingRight=4;overflow=hidden;rotatable=0;points=[[0,0.5],[1,0.5]];portConstraint=eastwest;fontSize=12;whiteSpace=wrap;html=1;gradientColor=#b3b3b3;" parent="5CCXZrM_Q9LhJRwF_CGn-76" vertex="1">
          <mxGeometry y="90" width="90" height="20" as="geometry" />
        </mxCell>
        <mxCell id="5CCXZrM_Q9LhJRwF_CGn-82" value="Kredit" style="text;strokeColor=none;fillColor=#fff2cc;spacingLeft=4;spacingRight=4;overflow=hidden;rotatable=0;points=[[0,0.5],[1,0.5]];portConstraint=eastwest;fontSize=12;whiteSpace=wrap;html=1;gradientColor=#ffd966;gradientDirection=north;" parent="5CCXZrM_Q9LhJRwF_CGn-76" vertex="1">
          <mxGeometry y="110" width="90" height="20" as="geometry" />
        </mxCell>
        <mxCell id="5CCXZrM_Q9LhJRwF_CGn-83" value="N" style="text;spacingLeft=4;spacingRight=4;overflow=hidden;rotatable=0;points=[[0,0.5],[1,0.5]];portConstraint=eastwest;fontSize=12;whiteSpace=wrap;html=1;fillColor=#f5f5f5;strokeColor=none;gradientColor=#b3b3b3;" parent="5CCXZrM_Q9LhJRwF_CGn-76" vertex="1">
          <mxGeometry y="130" width="90" height="30" as="geometry" />
        </mxCell>
        <mxCell id="5CCXZrM_Q9LhJRwF_CGn-90" value="" style="group;fillColor=#f5f5f5;strokeColor=none;gradientColor=#b3b3b3;" parent="5CCXZrM_Q9LhJRwF_CGn-76" vertex="1" connectable="0">
          <mxGeometry y="160" width="90" height="58" as="geometry" />
        </mxCell>
        <mxCell id="5CCXZrM_Q9LhJRwF_CGn-86" value="Lezárás módja" style="text;strokeColor=#b85450;fillColor=#f8cecc;spacingLeft=4;spacingRight=4;overflow=hidden;rotatable=0;points=[[0,0.5],[1,0.5]];portConstraint=eastwest;fontSize=12;whiteSpace=wrap;html=1;gradientColor=#ea6b66;gradientDirection=north;" parent="5CCXZrM_Q9LhJRwF_CGn-90" vertex="1">
          <mxGeometry width="90" height="38.666666666666664" as="geometry" />
        </mxCell>
        <mxCell id="5CCXZrM_Q9LhJRwF_CGn-87" value="C12" style="text;strokeColor=none;fillColor=#f5f5f5;spacingLeft=4;spacingRight=4;overflow=hidden;rotatable=0;points=[[0,0.5],[1,0.5]];portConstraint=eastwest;fontSize=12;whiteSpace=wrap;html=1;gradientColor=#b3b3b3;" parent="5CCXZrM_Q9LhJRwF_CGn-90" vertex="1">
          <mxGeometry y="29" width="90" height="29" as="geometry" />
        </mxCell>
        <mxCell id="5CCXZrM_Q9LhJRwF_CGn-84" value="" style="endArrow=none;html=1;rounded=0;entryX=0.997;entryY=-0.02;entryDx=0;entryDy=0;entryPerimeter=0;" parent="5CCXZrM_Q9LhJRwF_CGn-76" target="5CCXZrM_Q9LhJRwF_CGn-82" edge="1">
          <mxGeometry relative="1" as="geometry">
            <mxPoint y="110" as="sourcePoint" />
            <mxPoint x="80" y="110" as="targetPoint" />
          </mxGeometry>
        </mxCell>
        <mxCell id="5CCXZrM_Q9LhJRwF_CGn-88" value="" style="endArrow=none;html=1;rounded=0;exitX=-0.002;exitY=1;exitDx=0;exitDy=0;exitPerimeter=0;entryX=1.003;entryY=0;entryDx=0;entryDy=0;entryPerimeter=0;" parent="5CCXZrM_Q9LhJRwF_CGn-76" source="5CCXZrM_Q9LhJRwF_CGn-83" target="5CCXZrM_Q9LhJRwF_CGn-86" edge="1">
          <mxGeometry relative="1" as="geometry">
            <mxPoint x="5" y="149.93333333333334" as="sourcePoint" />
            <mxPoint x="85" y="149.93333333333334" as="targetPoint" />
          </mxGeometry>
        </mxCell>
        <mxCell id="5CCXZrM_Q9LhJRwF_CGn-85" value="&lt;div&gt;&lt;br&gt;&lt;/div&gt;" style="text;strokeColor=none;fillColor=none;spacingLeft=4;spacingRight=4;overflow=hidden;rotatable=0;points=[[0,0.5],[1,0.5]];portConstraint=eastwest;fontSize=12;whiteSpace=wrap;html=1;" parent="1" vertex="1">
          <mxGeometry x="700" y="650" width="80" height="20" as="geometry" />
        </mxCell>
        <mxCell id="X3uB52Dyl0A9F3vno7jS-1" value="" style="endArrow=classic;html=1;rounded=0;entryX=1;entryY=0.5;entryDx=0;entryDy=0;exitX=0;exitY=0.5;exitDx=0;exitDy=0;" parent="1" source="5CCXZrM_Q9LhJRwF_CGn-68" target="5CCXZrM_Q9LhJRwF_CGn-51" edge="1">
          <mxGeometry relative="1" as="geometry">
            <mxPoint x="430" y="446" as="sourcePoint" />
            <mxPoint x="530" y="446" as="targetPoint" />
          </mxGeometry>
        </mxCell>
        <mxCell id="X3uB52Dyl0A9F3vno7jS-2" value="Tanév/félév" style="edgeLabel;resizable=0;html=1;;align=center;verticalAlign=middle;" parent="X3uB52Dyl0A9F3vno7jS-1" connectable="0" vertex="1">
          <mxGeometry relative="1" as="geometry" />
        </mxCell>
        <mxCell id="X3uB52Dyl0A9F3vno7jS-9" value="" style="endArrow=classic;html=1;rounded=0;exitX=1;exitY=0.5;exitDx=0;exitDy=0;entryX=-0.033;entryY=0.497;entryDx=0;entryDy=0;entryPerimeter=0;" parent="1" source="5CCXZrM_Q9LhJRwF_CGn-68" target="5CCXZrM_Q9LhJRwF_CGn-77" edge="1">
          <mxGeometry relative="1" as="geometry">
            <mxPoint x="440" y="456" as="sourcePoint" />
            <mxPoint x="670" y="310" as="targetPoint" />
          </mxGeometry>
        </mxCell>
        <mxCell id="X3uB52Dyl0A9F3vno7jS-10" value="Tanév/félév" style="edgeLabel;resizable=0;html=1;;align=center;verticalAlign=middle;" parent="X3uB52Dyl0A9F3vno7jS-9" connectable="0" vertex="1">
          <mxGeometry relative="1" as="geometry" />
        </mxCell>
        <mxCell id="rI609L1YRAF9POslOTDD-1" value="" style="endArrow=classic;html=1;rounded=0;entryX=-0.029;entryY=0.486;entryDx=0;entryDy=0;entryPerimeter=0;" parent="1" target="5CCXZrM_Q9LhJRwF_CGn-68" edge="1">
          <mxGeometry width="50" height="50" relative="1" as="geometry">
            <mxPoint x="460" y="276" as="sourcePoint" />
            <mxPoint x="500" y="350" as="targetPoint" />
          </mxGeometry>
        </mxCell>
        <mxCell id="rI609L1YRAF9POslOTDD-2" value="" style="endArrow=classic;html=1;rounded=0;entryX=0.03;entryY=0.496;entryDx=0;entryDy=0;entryPerimeter=0;" parent="1" target="5CCXZrM_Q9LhJRwF_CGn-68" edge="1">
          <mxGeometry width="50" height="50" relative="1" as="geometry">
            <mxPoint x="460" y="276" as="sourcePoint" />
            <mxPoint x="500" y="350" as="targetPoint" />
          </mxGeometry>
        </mxCell>
        <mxCell id="GV9-aNYt4O0HFyw1Gfee-2" value="Integritási feltételek" style="shape=table;startSize=30;container=1;collapsible=0;childLayout=tableLayout;fontSize=16;fillColor=#eeeeee;strokeColor=#36393d;gradientColor=#4DC7CF;swimlaneFillColor=none;" parent="1" vertex="1">
          <mxGeometry x="510" y="70" width="190" height="100" as="geometry" />
        </mxCell>
        <mxCell id="GV9-aNYt4O0HFyw1Gfee-3" value="" style="shape=tableRow;horizontal=0;startSize=0;swimlaneHead=0;swimlaneBody=0;strokeColor=inherit;top=0;left=0;bottom=0;right=0;collapsible=0;dropTarget=0;fillColor=none;points=[[0,0.5],[1,0.5]];portConstraint=eastwest;fontSize=16;" parent="GV9-aNYt4O0HFyw1Gfee-2" vertex="1">
          <mxGeometry y="30" width="190" height="70" as="geometry" />
        </mxCell>
        <mxCell id="GV9-aNYt4O0HFyw1Gfee-4" value="NN" style="shape=partialRectangle;html=1;whiteSpace=wrap;connectable=0;strokeColor=#b85450;overflow=hidden;fillColor=#f8cecc;top=0;left=0;bottom=0;right=0;pointerEvents=1;fontSize=16;gradientColor=#ea6b66;gradientDirection=north;" parent="GV9-aNYt4O0HFyw1Gfee-3" vertex="1">
          <mxGeometry width="94" height="70" as="geometry">
            <mxRectangle width="94" height="70" as="alternateBounds" />
          </mxGeometry>
        </mxCell>
        <mxCell id="GV9-aNYt4O0HFyw1Gfee-5" value="&lt;font size=&quot;2&quot;&gt;0 &amp;gt; kredit &amp;lt; 6&lt;/font&gt;" style="shape=partialRectangle;html=1;whiteSpace=wrap;connectable=0;strokeColor=#d6b656;overflow=hidden;fillColor=#fff2cc;top=0;left=0;bottom=0;right=0;pointerEvents=1;fontSize=16;gradientColor=#ffd966;gradientDirection=north;" parent="GV9-aNYt4O0HFyw1Gfee-3" vertex="1">
          <mxGeometry x="94" width="96" height="70" as="geometry">
            <mxRectangle width="96" height="70" as="alternateBounds" />
          </mxGeometry>
        </mxCell>
      </root>
    </mxGraphModel>
  </diagram>
</mxfile>
